<mxfile host="Electron" modified="2024-11-23T22:44:42.478Z" agent="Mozilla/5.0 (X11; Linux x86_64) AppleWebKit/537.36 (KHTML, like Gecko) draw.io/24.6.1 Chrome/124.0.6367.207 Electron/30.0.6 Safari/537.36" etag="c-F5A84LWtp5Iu_fMWpX" version="24.6.1" type="device">
  <diagram name="Page-1" id="kWKPgUghzsSrnzHGrAk7">
    <mxGraphModel dx="1127" dy="755" grid="1" gridSize="10" guides="1" tooltips="1" connect="1" arrows="1" fold="1" page="1" pageScale="1" pageWidth="850" pageHeight="1100" math="0" shadow="0">
      <root>
        <mxCell id="0" />
        <mxCell id="1" parent="0" />
        <mxCell id="Wbtbn_dKOY_vqfq40iDo-18" style="edgeStyle=orthogonalEdgeStyle;rounded=0;orthogonalLoop=1;jettySize=auto;html=1;fillColor=#b1ddf0;strokeColor=#10739e;startSize=6;endSize=3;" parent="1" source="Wbtbn_dKOY_vqfq40iDo-1" edge="1">
          <mxGeometry relative="1" as="geometry">
            <mxPoint x="540" y="220" as="targetPoint" />
          </mxGeometry>
        </mxCell>
        <mxCell id="Wbtbn_dKOY_vqfq40iDo-1" value="&lt;div&gt;&lt;br&gt;&lt;/div&gt;Memory&lt;div&gt;in&amp;nbsp; &amp;nbsp; 4096 x 16 bit&amp;nbsp; out&lt;/div&gt;&lt;div&gt;&lt;br&gt;&lt;/div&gt;&lt;div&gt;Address&lt;/div&gt;" style="rounded=0;whiteSpace=wrap;html=1;" parent="1" vertex="1">
          <mxGeometry x="380" y="180" width="120" height="80" as="geometry" />
        </mxCell>
        <mxCell id="Wbtbn_dKOY_vqfq40iDo-17" style="edgeStyle=orthogonalEdgeStyle;rounded=0;orthogonalLoop=1;jettySize=auto;html=1;fillColor=#b1ddf0;strokeColor=#10739e;startSize=6;endSize=3;" parent="1" source="Wbtbn_dKOY_vqfq40iDo-3" edge="1">
          <mxGeometry relative="1" as="geometry">
            <mxPoint x="540" y="290" as="targetPoint" />
          </mxGeometry>
        </mxCell>
        <mxCell id="Wbtbn_dKOY_vqfq40iDo-3" value="AR" style="rounded=0;whiteSpace=wrap;html=1;" parent="1" vertex="1">
          <mxGeometry x="400" y="280" width="80" height="20" as="geometry" />
        </mxCell>
        <mxCell id="Wbtbn_dKOY_vqfq40iDo-4" value="PC" style="rounded=0;whiteSpace=wrap;html=1;" parent="1" vertex="1">
          <mxGeometry x="400" y="320" width="80" height="20" as="geometry" />
        </mxCell>
        <mxCell id="Wbtbn_dKOY_vqfq40iDo-5" value="DR" style="rounded=0;whiteSpace=wrap;html=1;" parent="1" vertex="1">
          <mxGeometry x="400" y="360" width="80" height="20" as="geometry" />
        </mxCell>
        <mxCell id="Wbtbn_dKOY_vqfq40iDo-6" value="AC" style="rounded=0;whiteSpace=wrap;html=1;" parent="1" vertex="1">
          <mxGeometry x="400" y="410" width="80" height="20" as="geometry" />
        </mxCell>
        <mxCell id="Wbtbn_dKOY_vqfq40iDo-7" value="ALSU" style="rounded=0;whiteSpace=wrap;html=1;" parent="1" vertex="1">
          <mxGeometry x="340" y="400" width="40" height="40" as="geometry" />
        </mxCell>
        <mxCell id="Wbtbn_dKOY_vqfq40iDo-8" value="IR" style="rounded=0;whiteSpace=wrap;html=1;" parent="1" vertex="1">
          <mxGeometry x="400" y="500" width="80" height="20" as="geometry" />
        </mxCell>
        <mxCell id="Wbtbn_dKOY_vqfq40iDo-9" value="TR" style="rounded=0;whiteSpace=wrap;html=1;" parent="1" vertex="1">
          <mxGeometry x="400" y="540" width="80" height="20" as="geometry" />
        </mxCell>
        <mxCell id="Wbtbn_dKOY_vqfq40iDo-14" value="" style="endArrow=classic;html=1;rounded=0;entryX=0.5;entryY=1;entryDx=0;entryDy=0;fillColor=#b1ddf0;strokeColor=#10739e;startSize=6;endSize=3;" parent="1" target="Wbtbn_dKOY_vqfq40iDo-1" edge="1">
          <mxGeometry width="50" height="50" relative="1" as="geometry">
            <mxPoint x="440" y="270" as="sourcePoint" />
            <mxPoint x="400" y="320" as="targetPoint" />
          </mxGeometry>
        </mxCell>
        <mxCell id="Wbtbn_dKOY_vqfq40iDo-16" value="" style="endArrow=none;html=1;rounded=0;fillColor=#b1ddf0;strokeColor=#10739e;startSize=6;endSize=3;" parent="1" edge="1">
          <mxGeometry width="50" height="50" relative="1" as="geometry">
            <mxPoint x="440" y="270" as="sourcePoint" />
            <mxPoint x="510" y="270" as="targetPoint" />
          </mxGeometry>
        </mxCell>
        <mxCell id="Wbtbn_dKOY_vqfq40iDo-19" value="" style="endArrow=none;html=1;rounded=0;fillColor=#b1ddf0;strokeColor=#10739e;startSize=6;endSize=3;" parent="1" edge="1">
          <mxGeometry width="50" height="50" relative="1" as="geometry">
            <mxPoint x="510" y="270" as="sourcePoint" />
            <mxPoint x="510" y="290" as="targetPoint" />
          </mxGeometry>
        </mxCell>
        <mxCell id="Wbtbn_dKOY_vqfq40iDo-20" style="edgeStyle=orthogonalEdgeStyle;rounded=0;orthogonalLoop=1;jettySize=auto;html=1;fillColor=#b1ddf0;strokeColor=#10739e;startSize=6;endSize=3;" parent="1" edge="1">
          <mxGeometry relative="1" as="geometry">
            <mxPoint x="540" y="329.83" as="targetPoint" />
            <mxPoint x="480" y="329.83" as="sourcePoint" />
          </mxGeometry>
        </mxCell>
        <mxCell id="Wbtbn_dKOY_vqfq40iDo-21" style="edgeStyle=orthogonalEdgeStyle;rounded=0;orthogonalLoop=1;jettySize=auto;html=1;fillColor=#b1ddf0;strokeColor=#10739e;startSize=6;endSize=3;" parent="1" edge="1">
          <mxGeometry relative="1" as="geometry">
            <mxPoint x="540" y="369.83" as="targetPoint" />
            <mxPoint x="480" y="369.83" as="sourcePoint" />
          </mxGeometry>
        </mxCell>
        <mxCell id="Wbtbn_dKOY_vqfq40iDo-22" style="edgeStyle=orthogonalEdgeStyle;rounded=0;orthogonalLoop=1;jettySize=auto;html=1;fillColor=#b1ddf0;strokeColor=#10739e;startSize=6;endSize=3;" parent="1" edge="1">
          <mxGeometry relative="1" as="geometry">
            <mxPoint x="540" y="419.83" as="targetPoint" />
            <mxPoint x="480" y="419.83" as="sourcePoint" />
          </mxGeometry>
        </mxCell>
        <mxCell id="Wbtbn_dKOY_vqfq40iDo-23" style="edgeStyle=orthogonalEdgeStyle;rounded=0;orthogonalLoop=1;jettySize=auto;html=1;fillColor=#b1ddf0;strokeColor=#10739e;startSize=6;endSize=3;" parent="1" edge="1">
          <mxGeometry relative="1" as="geometry">
            <mxPoint x="400" y="290" as="targetPoint" />
            <mxPoint x="310" y="290" as="sourcePoint" />
          </mxGeometry>
        </mxCell>
        <mxCell id="Wbtbn_dKOY_vqfq40iDo-24" style="edgeStyle=orthogonalEdgeStyle;rounded=0;orthogonalLoop=1;jettySize=auto;html=1;fillColor=#b1ddf0;strokeColor=#10739e;startSize=6;endSize=3;" parent="1" edge="1">
          <mxGeometry relative="1" as="geometry">
            <mxPoint x="400" y="329.83" as="targetPoint" />
            <mxPoint x="310" y="330" as="sourcePoint" />
          </mxGeometry>
        </mxCell>
        <mxCell id="Wbtbn_dKOY_vqfq40iDo-25" style="edgeStyle=orthogonalEdgeStyle;rounded=0;orthogonalLoop=1;jettySize=auto;html=1;fillColor=#b1ddf0;strokeColor=#10739e;startSize=6;endSize=3;" parent="1" edge="1">
          <mxGeometry relative="1" as="geometry">
            <mxPoint x="400" y="369.83" as="targetPoint" />
            <mxPoint x="310" y="370" as="sourcePoint" />
          </mxGeometry>
        </mxCell>
        <mxCell id="Wbtbn_dKOY_vqfq40iDo-27" style="edgeStyle=orthogonalEdgeStyle;rounded=0;orthogonalLoop=1;jettySize=auto;html=1;fillColor=#b1ddf0;strokeColor=#10739e;startSize=6;endSize=3;" parent="1" edge="1">
          <mxGeometry relative="1" as="geometry">
            <mxPoint x="400" y="420" as="targetPoint" />
            <mxPoint x="380" y="419.83" as="sourcePoint" />
          </mxGeometry>
        </mxCell>
        <mxCell id="Wbtbn_dKOY_vqfq40iDo-28" style="edgeStyle=orthogonalEdgeStyle;rounded=0;orthogonalLoop=1;jettySize=auto;html=1;fillColor=#b1ddf0;strokeColor=#10739e;startSize=6;endSize=3;" parent="1" edge="1">
          <mxGeometry relative="1" as="geometry">
            <mxPoint x="339.99" y="410.19" as="targetPoint" />
            <mxPoint x="330" y="410" as="sourcePoint" />
          </mxGeometry>
        </mxCell>
        <mxCell id="Wbtbn_dKOY_vqfq40iDo-29" style="edgeStyle=orthogonalEdgeStyle;rounded=0;orthogonalLoop=1;jettySize=auto;html=1;fillColor=#b1ddf0;strokeColor=#10739e;startSize=6;endSize=3;" parent="1" edge="1">
          <mxGeometry relative="1" as="geometry">
            <mxPoint x="339.98" y="420.09" as="targetPoint" />
            <mxPoint x="319.98" y="419.91999999999996" as="sourcePoint" />
          </mxGeometry>
        </mxCell>
        <mxCell id="Wbtbn_dKOY_vqfq40iDo-30" style="edgeStyle=orthogonalEdgeStyle;rounded=0;orthogonalLoop=1;jettySize=auto;html=1;fillColor=#b1ddf0;strokeColor=#10739e;startSize=6;endSize=3;" parent="1" edge="1">
          <mxGeometry relative="1" as="geometry">
            <mxPoint x="339.98" y="430.18" as="targetPoint" />
            <mxPoint x="330" y="430" as="sourcePoint" />
          </mxGeometry>
        </mxCell>
        <mxCell id="Wbtbn_dKOY_vqfq40iDo-31" value="" style="endArrow=none;html=1;rounded=0;fillColor=#b1ddf0;strokeColor=#10739e;startSize=6;endSize=3;" parent="1" edge="1">
          <mxGeometry width="50" height="50" relative="1" as="geometry">
            <mxPoint x="510" y="370" as="sourcePoint" />
            <mxPoint x="510" y="390" as="targetPoint" />
          </mxGeometry>
        </mxCell>
        <mxCell id="Wbtbn_dKOY_vqfq40iDo-32" value="" style="endArrow=none;html=1;rounded=0;fillColor=#b1ddf0;strokeColor=#10739e;startSize=6;endSize=3;" parent="1" edge="1">
          <mxGeometry width="50" height="50" relative="1" as="geometry">
            <mxPoint x="510" y="390" as="sourcePoint" />
            <mxPoint x="330" y="390" as="targetPoint" />
          </mxGeometry>
        </mxCell>
        <mxCell id="Wbtbn_dKOY_vqfq40iDo-33" value="" style="endArrow=none;html=1;rounded=0;fillColor=#b1ddf0;strokeColor=#10739e;startSize=6;endSize=3;" parent="1" edge="1">
          <mxGeometry width="50" height="50" relative="1" as="geometry">
            <mxPoint x="330" y="390" as="sourcePoint" />
            <mxPoint x="330" y="410" as="targetPoint" />
          </mxGeometry>
        </mxCell>
        <mxCell id="Wbtbn_dKOY_vqfq40iDo-34" value="Input R" style="rounded=0;whiteSpace=wrap;html=1;fontSize=9;" parent="1" vertex="1">
          <mxGeometry x="460" y="470" width="40" height="20" as="geometry" />
        </mxCell>
        <mxCell id="Wbtbn_dKOY_vqfq40iDo-35" value="Interface" style="rounded=0;whiteSpace=wrap;html=1;fontSize=7;" parent="1" vertex="1">
          <mxGeometry x="400" y="475" width="40" height="10" as="geometry" />
        </mxCell>
        <mxCell id="Wbtbn_dKOY_vqfq40iDo-36" value="Input" style="rounded=0;whiteSpace=wrap;html=1;fontSize=9;" parent="1" vertex="1">
          <mxGeometry x="350" y="470" width="30" height="20" as="geometry" />
        </mxCell>
        <mxCell id="Wbtbn_dKOY_vqfq40iDo-38" style="edgeStyle=orthogonalEdgeStyle;rounded=0;orthogonalLoop=1;jettySize=auto;html=1;fillColor=#b1ddf0;strokeColor=#10739e;startSize=6;endSize=3;" parent="1" edge="1">
          <mxGeometry relative="1" as="geometry">
            <mxPoint x="399.98" y="480.09999999999997" as="targetPoint" />
            <mxPoint x="379.98" y="479.92999999999995" as="sourcePoint" />
          </mxGeometry>
        </mxCell>
        <mxCell id="Wbtbn_dKOY_vqfq40iDo-39" style="edgeStyle=orthogonalEdgeStyle;rounded=0;orthogonalLoop=1;jettySize=auto;html=1;fillColor=#b1ddf0;strokeColor=#10739e;startSize=6;endSize=3;" parent="1" edge="1">
          <mxGeometry relative="1" as="geometry">
            <mxPoint x="459.98" y="480.09999999999997" as="targetPoint" />
            <mxPoint x="439.98" y="479.92999999999995" as="sourcePoint" />
          </mxGeometry>
        </mxCell>
        <mxCell id="Wbtbn_dKOY_vqfq40iDo-41" value="" style="endArrow=none;html=1;rounded=0;fillColor=#b1ddf0;strokeColor=#10739e;startSize=6;endSize=3;" parent="1" edge="1">
          <mxGeometry width="50" height="50" relative="1" as="geometry">
            <mxPoint x="510" y="480" as="sourcePoint" />
            <mxPoint x="500" y="479.94" as="targetPoint" />
          </mxGeometry>
        </mxCell>
        <mxCell id="Wbtbn_dKOY_vqfq40iDo-42" value="" style="endArrow=none;html=1;rounded=0;fillColor=#b1ddf0;strokeColor=#10739e;startSize=6;endSize=3;" parent="1" edge="1">
          <mxGeometry width="50" height="50" relative="1" as="geometry">
            <mxPoint x="510" y="460" as="sourcePoint" />
            <mxPoint x="510" y="480" as="targetPoint" />
          </mxGeometry>
        </mxCell>
        <mxCell id="Wbtbn_dKOY_vqfq40iDo-43" style="edgeStyle=orthogonalEdgeStyle;rounded=0;orthogonalLoop=1;jettySize=auto;html=1;fillColor=#b1ddf0;strokeColor=#10739e;startSize=6;endSize=3;" parent="1" edge="1">
          <mxGeometry relative="1" as="geometry">
            <mxPoint x="540" y="509.9" as="targetPoint" />
            <mxPoint x="480" y="509.9" as="sourcePoint" />
          </mxGeometry>
        </mxCell>
        <mxCell id="Wbtbn_dKOY_vqfq40iDo-44" style="edgeStyle=orthogonalEdgeStyle;rounded=0;orthogonalLoop=1;jettySize=auto;html=1;fillColor=#b1ddf0;strokeColor=#10739e;startSize=6;endSize=3;" parent="1" edge="1">
          <mxGeometry relative="1" as="geometry">
            <mxPoint x="400" y="509.9" as="targetPoint" />
            <mxPoint x="310" y="510" as="sourcePoint" />
          </mxGeometry>
        </mxCell>
        <mxCell id="Wbtbn_dKOY_vqfq40iDo-45" value="" style="endArrow=none;html=1;rounded=0;fillColor=#b1ddf0;strokeColor=#10739e;startSize=6;endSize=3;" parent="1" edge="1">
          <mxGeometry width="50" height="50" relative="1" as="geometry">
            <mxPoint x="510" y="460" as="sourcePoint" />
            <mxPoint x="320" y="460" as="targetPoint" />
          </mxGeometry>
        </mxCell>
        <mxCell id="Wbtbn_dKOY_vqfq40iDo-46" value="" style="endArrow=none;html=1;rounded=0;fillColor=#b1ddf0;strokeColor=#10739e;startSize=6;endSize=3;" parent="1" edge="1">
          <mxGeometry width="50" height="50" relative="1" as="geometry">
            <mxPoint x="320" y="420" as="sourcePoint" />
            <mxPoint x="320" y="460" as="targetPoint" />
          </mxGeometry>
        </mxCell>
        <mxCell id="Wbtbn_dKOY_vqfq40iDo-47" value="" style="endArrow=none;html=1;rounded=0;fillColor=#b1ddf0;strokeColor=#10739e;startSize=6;endSize=3;" parent="1" edge="1">
          <mxGeometry width="50" height="50" relative="1" as="geometry">
            <mxPoint x="510" y="450" as="sourcePoint" />
            <mxPoint x="330" y="450" as="targetPoint" />
          </mxGeometry>
        </mxCell>
        <mxCell id="Wbtbn_dKOY_vqfq40iDo-48" value="" style="endArrow=none;html=1;rounded=0;fillColor=#b1ddf0;strokeColor=#10739e;startSize=6;endSize=3;" parent="1" edge="1">
          <mxGeometry width="50" height="50" relative="1" as="geometry">
            <mxPoint x="330" y="430" as="sourcePoint" />
            <mxPoint x="330" y="450" as="targetPoint" />
          </mxGeometry>
        </mxCell>
        <mxCell id="Wbtbn_dKOY_vqfq40iDo-49" value="" style="endArrow=none;html=1;rounded=0;fillColor=#b1ddf0;strokeColor=#10739e;startSize=6;endSize=3;" parent="1" edge="1">
          <mxGeometry width="50" height="50" relative="1" as="geometry">
            <mxPoint x="510" y="420" as="sourcePoint" />
            <mxPoint x="510" y="450" as="targetPoint" />
          </mxGeometry>
        </mxCell>
        <mxCell id="Wbtbn_dKOY_vqfq40iDo-50" style="edgeStyle=orthogonalEdgeStyle;rounded=0;orthogonalLoop=1;jettySize=auto;html=1;fillColor=#b1ddf0;strokeColor=#10739e;startSize=6;endSize=3;" parent="1" edge="1">
          <mxGeometry relative="1" as="geometry">
            <mxPoint x="400" y="549.6999999999999" as="targetPoint" />
            <mxPoint x="310" y="549.8" as="sourcePoint" />
          </mxGeometry>
        </mxCell>
        <mxCell id="Wbtbn_dKOY_vqfq40iDo-51" style="edgeStyle=orthogonalEdgeStyle;rounded=0;orthogonalLoop=1;jettySize=auto;html=1;fillColor=#b1ddf0;strokeColor=#10739e;startSize=6;endSize=3;" parent="1" edge="1">
          <mxGeometry relative="1" as="geometry">
            <mxPoint x="540" y="549.86" as="targetPoint" />
            <mxPoint x="480" y="549.86" as="sourcePoint" />
          </mxGeometry>
        </mxCell>
        <mxCell id="Wbtbn_dKOY_vqfq40iDo-52" style="edgeStyle=orthogonalEdgeStyle;rounded=0;orthogonalLoop=1;jettySize=auto;html=1;fillColor=#b1ddf0;strokeColor=#10739e;startSize=6;endSize=3;" parent="1" edge="1">
          <mxGeometry relative="1" as="geometry">
            <mxPoint x="380" y="219.86" as="targetPoint" />
            <mxPoint x="310" y="220" as="sourcePoint" />
          </mxGeometry>
        </mxCell>
        <mxCell id="Wbtbn_dKOY_vqfq40iDo-59" value="Output R" style="rounded=0;whiteSpace=wrap;html=1;fontSize=9;" parent="1" vertex="1">
          <mxGeometry x="350" y="570" width="40" height="20" as="geometry" />
        </mxCell>
        <mxCell id="Wbtbn_dKOY_vqfq40iDo-60" value="Interface" style="rounded=0;whiteSpace=wrap;html=1;fontSize=7;" parent="1" vertex="1">
          <mxGeometry x="411" y="575" width="40" height="10" as="geometry" />
        </mxCell>
        <mxCell id="Wbtbn_dKOY_vqfq40iDo-61" value="Output" style="rounded=0;whiteSpace=wrap;html=1;fontSize=9;" parent="1" vertex="1">
          <mxGeometry x="470" y="570" width="30" height="20" as="geometry" />
        </mxCell>
        <mxCell id="Wbtbn_dKOY_vqfq40iDo-62" style="edgeStyle=orthogonalEdgeStyle;rounded=0;orthogonalLoop=1;jettySize=auto;html=1;fillColor=#b1ddf0;strokeColor=#10739e;startSize=6;endSize=3;" parent="1" edge="1">
          <mxGeometry relative="1" as="geometry">
            <mxPoint x="410" y="579.9999999999999" as="targetPoint" />
            <mxPoint x="390" y="579.8299999999999" as="sourcePoint" />
          </mxGeometry>
        </mxCell>
        <mxCell id="Wbtbn_dKOY_vqfq40iDo-63" style="edgeStyle=orthogonalEdgeStyle;rounded=0;orthogonalLoop=1;jettySize=auto;html=1;fillColor=#b1ddf0;strokeColor=#10739e;startSize=6;endSize=3;" parent="1" edge="1">
          <mxGeometry relative="1" as="geometry">
            <mxPoint x="471" y="579.9999999999999" as="targetPoint" />
            <mxPoint x="451" y="579.8299999999999" as="sourcePoint" />
          </mxGeometry>
        </mxCell>
        <mxCell id="Wbtbn_dKOY_vqfq40iDo-65" style="edgeStyle=orthogonalEdgeStyle;rounded=0;orthogonalLoop=1;jettySize=auto;html=1;fillColor=#b1ddf0;strokeColor=#10739e;startSize=6;endSize=3;" parent="1" edge="1">
          <mxGeometry relative="1" as="geometry">
            <mxPoint x="350" y="579.9" as="targetPoint" />
            <mxPoint x="310" y="580" as="sourcePoint" />
          </mxGeometry>
        </mxCell>
        <mxCell id="Wbtbn_dKOY_vqfq40iDo-66" value="" style="endArrow=none;html=1;rounded=0;fillColor=#b1ddf0;strokeColor=#10739e;startSize=6;endSize=3;" parent="1" edge="1">
          <mxGeometry width="50" height="50" relative="1" as="geometry">
            <mxPoint x="310" y="170" as="sourcePoint" />
            <mxPoint x="310" y="600" as="targetPoint" />
          </mxGeometry>
        </mxCell>
        <mxCell id="Wbtbn_dKOY_vqfq40iDo-67" value="" style="endArrow=none;html=1;rounded=0;fillColor=#b1ddf0;strokeColor=#10739e;startSize=6;endSize=3;" parent="1" edge="1">
          <mxGeometry width="50" height="50" relative="1" as="geometry">
            <mxPoint x="540" y="600" as="sourcePoint" />
            <mxPoint x="310" y="600" as="targetPoint" />
          </mxGeometry>
        </mxCell>
        <mxCell id="Wbtbn_dKOY_vqfq40iDo-68" value="" style="endArrow=none;html=1;rounded=0;fillColor=#b1ddf0;strokeColor=#10739e;startSize=6;endSize=3;" parent="1" edge="1">
          <mxGeometry width="50" height="50" relative="1" as="geometry">
            <mxPoint x="540" y="170" as="sourcePoint" />
            <mxPoint x="540" y="600" as="targetPoint" />
          </mxGeometry>
        </mxCell>
      </root>
    </mxGraphModel>
  </diagram>
</mxfile>
